<?xml version="1.0" encoding="UTF-8" standalone="no"?>
<svg
   xmlns:dc="http://purl.org/dc/elements/1.1/"
   xmlns:cc="http://creativecommons.org/ns#"
   xmlns:rdf="http://www.w3.org/1999/02/22-rdf-syntax-ns#"
   xmlns:svg="http://www.w3.org/2000/svg"
   xmlns="http://www.w3.org/2000/svg"
   xmlns:sodipodi="http://sodipodi.sourceforge.net/DTD/sodipodi-0.dtd"
   xmlns:inkscape="http://www.inkscape.org/namespaces/inkscape"
   inkscape:export-ydpi="576"
   inkscape:export-xdpi="576"
   inkscape:export-filename="D:\Project juni #1\export\line\png\4. children toy water gun.png"
   width="64pt"
   height="64pt"
   viewBox="0 0 22.577778 22.577778"
   version="1.1"
   id="svg831"
   inkscape:version="1.0 (4035a4fb49, 2020-05-01)"
   sodipodi:docname="5. children toy puppet.svg">
  <defs
     id="defs825">
    <pattern
       id="EMFhbasepattern"
       patternUnits="userSpaceOnUse"
       width="6"
       height="6"
       x="0"
       y="0" />
    <pattern
       id="EMFhbasepattern-9"
       patternUnits="userSpaceOnUse"
       width="6"
       height="6"
       x="0"
       y="0" />
    <pattern
       id="EMFhbasepattern-0"
       patternUnits="userSpaceOnUse"
       width="6"
       height="6"
       x="0"
       y="0" />
    <pattern
       id="EMFhbasepattern-7"
       patternUnits="userSpaceOnUse"
       width="6"
       height="6"
       x="0"
       y="0" />
    <pattern
       id="EMFhbasepattern-2"
       patternUnits="userSpaceOnUse"
       width="6"
       height="6"
       x="0"
       y="0" />
    <pattern
       id="EMFhbasepattern-98"
       patternUnits="userSpaceOnUse"
       width="6"
       height="6"
       x="0"
       y="0" />
    <pattern
       id="EMFhbasepattern-6"
       patternUnits="userSpaceOnUse"
       width="6"
       height="6"
       x="0"
       y="0" />
    <pattern
       id="EMFhbasepattern-01"
       patternUnits="userSpaceOnUse"
       width="6"
       height="6"
       x="0"
       y="0" />
    <pattern
       id="EMFhbasepattern-07"
       patternUnits="userSpaceOnUse"
       width="6"
       height="6"
       x="0"
       y="0" />
    <pattern
       id="EMFhbasepattern-8"
       patternUnits="userSpaceOnUse"
       width="6"
       height="6"
       x="0"
       y="0" />
    <pattern
       id="EMFhbasepattern-4"
       patternUnits="userSpaceOnUse"
       width="6"
       height="6"
       x="0"
       y="0" />
    <pattern
       id="EMFhbasepattern-40"
       patternUnits="userSpaceOnUse"
       width="6"
       height="6"
       x="0"
       y="0" />
    <pattern
       id="EMFhbasepattern-08"
       patternUnits="userSpaceOnUse"
       width="6"
       height="6"
       x="0"
       y="0" />
    <pattern
       id="EMFhbasepattern-04"
       patternUnits="userSpaceOnUse"
       width="6"
       height="6"
       x="0"
       y="0" />
    <pattern
       id="EMFhbasepattern-014"
       patternUnits="userSpaceOnUse"
       width="6"
       height="6"
       x="0"
       y="0" />
    <pattern
       id="EMFhbasepattern-27"
       patternUnits="userSpaceOnUse"
       width="6"
       height="6"
       x="0"
       y="0" />
    <pattern
       id="EMFhbasepattern-09"
       patternUnits="userSpaceOnUse"
       width="6"
       height="6"
       x="0"
       y="0" />
    <pattern
       id="EMFhbasepattern-5"
       patternUnits="userSpaceOnUse"
       width="6"
       height="6"
       x="0"
       y="0" />
    <pattern
       id="EMFhbasepattern-018"
       patternUnits="userSpaceOnUse"
       width="6"
       height="6"
       x="0"
       y="0" />
  </defs>
  <sodipodi:namedview
     inkscape:lockguides="true"
     id="base"
     pagecolor="#ffffff"
     bordercolor="#666666"
     borderopacity="1.0"
     inkscape:pageopacity="0.0"
     inkscape:pageshadow="2"
     inkscape:zoom="6.2578125"
     inkscape:cx="42.666667"
     inkscape:cy="42.666667"
     inkscape:document-units="pt"
     inkscape:current-layer="layer1"
     showgrid="false"
     units="pt"
     inkscape:window-width="1366"
     inkscape:window-height="705"
     inkscape:window-x="-8"
     inkscape:window-y="-8"
     inkscape:window-maximized="1"
     inkscape:pagecheckerboard="true"
     inkscape:showpageshadow="false"
     inkscape:object-paths="true"
     inkscape:snap-intersection-paths="true"
     inkscape:snap-smooth-nodes="true"
     inkscape:snap-midpoints="true"
     showguides="true"
     inkscape:snap-bbox="true"
     inkscape:bbox-nodes="true"
     inkscape:snap-nodes="false"
     inkscape:snap-global="true"
     inkscape:document-rotation="0">
    <inkscape:grid
       type="xygrid"
       id="grid1378" />
    <sodipodi:guide
       position="0.97013831,21.607643"
       orientation="78.000048,0"
       id="guide1380"
       inkscape:locked="true" />
    <sodipodi:guide
       position="0.97013831,0.97013129"
       orientation="0,78.000005"
       id="guide1382"
       inkscape:locked="true" />
    <sodipodi:guide
       position="21.607639,0.97013129"
       orientation="-78.000048,0"
       id="guide1384"
       inkscape:locked="true" />
    <sodipodi:guide
       position="21.607639,21.607643"
       orientation="0,-78.000005"
       id="guide1386"
       inkscape:locked="true" />
  </sodipodi:namedview>
  <metadata
     id="metadata828">
    <rdf:RDF>
      <cc:Work
         rdf:about="">
        <dc:format>image/svg+xml</dc:format>
        <dc:type
           rdf:resource="http://purl.org/dc/dcmitype/StillImage" />
        <dc:title></dc:title>
      </cc:Work>
    </rdf:RDF>
  </metadata>
  <g
     inkscape:label="Icon"
     inkscape:groupmode="layer"
     id="layer1"
     transform="translate(0,-274.42223)">
    <path
       sodipodi:nodetypes="ssccccccscccccccssccccccccscccscsscscssccsccssccsccccccccccscccsccccccccccccccccccccccsssssccccsccccssscccccscccccssccsssccccccccccccccccccccssscsscccsscccssccssccccc"
       d="m 6.5502468,275.39235 c -1.233259,-1e-5 -2.2799722,1.0465 -2.2799722,2.32938 0,1.18172 0.9355241,2.07503 2.1844044,2.49646 -0.1440958,0.87875 -0.3315602,1.63094 -0.3315602,2.4386 l 0.019506,2.78512 -0.9017156,-0.91602 c -6.657e-4,-8.3e-4 -0.00166,-10e-4 -0.00267,-0.003 -0.310916,-0.3108 -0.7362433,-0.50481 -1.174116,-0.55066 -0.437873,-0.0458 -0.9265937,0.0759 -1.3307975,0.69563 -0.4042038,0.61983 -0.2972587,1.59009 0.3783704,2.28127 l 1.8886004,1.8808 c 0.2368643,0.34851 -0.052559,0.64511 -0.1846351,0.92187 -0.2127784,0.4026 -0.5287074,0.92071 -0.5623531,1.62856 -0.01019,0.85999 0.5356876,1.54023 1.3587512,1.43026 0.4870066,-0.0611 0.9998931,-0.15649 1.5024276,-0.2321 l -0.1261213,2.42625 c -0.044057,0.54625 0.3959522,1.02459 0.9439723,1.02459 h 6.6559349 c 0.548007,0 0.984549,-0.48992 0.921871,-1.03433 l -0.173581,-2.79748 c 0.313678,0.0531 0.624422,0.13348 0.927069,0.24965 1.36201,0.32308 2.157536,-0.78344 1.854143,-1.56419 -0.09145,-0.33968 -0.26151,-0.65616 -0.406974,-0.94008 -0.146395,-0.32297 -0.351371,-0.8495 -0.113125,-1.13511 l 1.865197,-1.85739 c 0.0016,-8e-4 0.0035,-10e-4 0.0052,-0.003 0.674404,-0.68992 0.780575,-1.66014 0.375122,-2.27997 -0.405452,-0.61983 -0.89097,-0.74146 -1.328847,-0.69563 -0.437876,0.0458 -0.865799,0.23985 -1.176718,0.55065 l -0.934223,0.93357 v -2.80136 c 0,-0.79771 -0.184393,-1.54539 -0.328961,-2.42755 1.242021,-0.42974 2.177255,-1.32392 2.177255,-2.50622 0,-1.28289 -1.049084,-2.32937 -2.331983,-2.32937 -1.183173,0 -2.079214,0.95739 -2.439902,2.29491 -0.77434,-0.0298 -1.458769,-0.17228 -2.21626,-0.17228 -0.767498,0 -1.4574243,0.14781 -2.2286149,0.17944 -0.3517671,-1.34362 -1.2515353,-2.3011 -2.4847977,-2.3011 z m 0.04941,0.66573 c 0.9231484,-2e-5 1.6902547,0.72773 1.9191536,2.04202 0.028094,0.15966 0.1668435,0.27569 0.3289605,0.275 0.9439018,-0.009 1.6881511,-0.19373 2.4158511,-0.19373 0.717986,0 1.45097,0.17867 2.397641,0.18658 0.162274,0.003 0.302905,-0.11335 0.332212,-0.27305 0.23868,-1.3087 1.003192,-2.03682 1.926309,-2.03682 0.923111,0 1.665605,0.74056 1.665605,1.66365 0,0.92312 -0.746488,1.70243 -1.952959,2.01733 -0.164683,0.0428 -0.270686,0.20293 -0.245745,0.37122 0.15516,1.03202 0.351063,1.78602 0.351063,2.54522 l -0.01032,3.81872 c -0.01032,0.21838 -0.0089,0.52985 -0.279028,0.86994 -0.113679,0.14393 -0.08961,0.35265 0.05396,0.46679 0.144326,0.11536 0.355059,0.0906 0.469388,-0.0546 0.369729,-0.4656 0.40468,-0.95084 0.423227,-1.34965 l 1.157866,-1.15656 1.222877,1.44587 -1.738423,1.73126 c -0.308394,0.44069 -0.15594,1.28852 0.06697,1.79174 0.127853,0.25358 0.252922,0.48116 0.356918,0.73919 0.13644,0.61629 -0.398599,1.08266 -1.437416,0.68392 -0.5158,-0.19798 -1.193369,-0.26675 -1.917856,-0.19048 0.04866,-0.60853 -0.007,-1.21841 -0.173584,-1.82294 -0.0394,-0.14526 -0.171278,-0.24583 -0.366015,-0.23925 -0.22136,0.0557 -0.324454,0.23977 -0.207389,0.66312 0.103262,0.37343 0.136134,0.93224 0.06566,1.51544 -0.523964,0.11876 -1.053257,0.30822 -1.549235,0.58445 -0.623656,0.34739 -1.383403,0.34252 -2.3651386,-0.21063 -0.1944311,-0.0777 -0.4065538,-0.12493 -0.6306164,-0.15083 0.2111841,-0.95411 0.2151485,-1.95393 -0.016244,-2.98991 -0.037278,-0.16752 -0.1960023,-0.27921 -0.3822716,-0.25419 -0.194834,0.0435 -0.3073944,0.22012 -0.2684995,0.39917 0.2219688,0.99372 0.2053956,1.92951 -0.014313,2.82867 -0.8792473,0.0384 -1.8523283,0.27468 -2.6810939,0.37772 -0.4923189,0.0309 -0.6112537,-0.38526 -0.5981124,-0.73982 0.025064,-0.52734 0.2580111,-0.92134 0.483688,-1.34835 0.3756342,-0.4631 0.4696344,-1.2853 0.1352283,-1.63702 l -1.7371249,-1.73061 1.2215788,-1.44457 1.1331576,1.15201 c 0.018906,0.39927 0.054659,0.88566 0.4251807,1.35225 0.1141551,0.14356 0.3228525,0.16825 0.4667852,0.0546 0.1435633,-0.11411 0.1676391,-0.32286 0.053961,-0.46679 -0.2739484,-0.34497 -0.2657999,-0.65932 -0.2769009,-0.88032 l -0.035778,-3.81029 c 3.329e-4,-0.76649 0.1998434,-1.52926 0.3536655,-2.55563 0.024731,-0.16903 -0.082666,-0.32953 -0.248348,-0.37121 -1.2134504,-0.30489 -1.9581618,-1.08186 -1.9581618,-2.00498 0,-0.92309 0.7405073,-1.66361 1.6636591,-1.66365 z m -0.1794324,0.62606 c -0.2558041,0 -0.5117881,0.097 -0.7053837,0.2906 -0.3871914,0.38719 -0.387188,1.02553 0,1.41271 l 0.4693881,0.4694 c 0.1301323,0.13082 0.3418556,0.13082 0.4719879,0 0.1290936,-0.12985 0.1290936,-0.33956 0,-0.4694 l -0.4719879,-0.47133 c -0.1327751,-0.13277 -0.1327718,-0.33662 0,-0.46939 0.1327785,-0.13278 0.3392126,-0.13277 0.4719879,0 l 0.4693881,0.46939 c 0.1301322,0.13083 0.3418556,0.13083 0.4719878,0 0.1290938,-0.12983 0.1290938,-0.33955 0,-0.46939 l -0.4719878,-0.47199 c -0.1935956,-0.19359 -0.4495762,-0.2906 -0.7053804,-0.2906 z m 9.5990276,0 c -0.25642,0 -0.513089,0.097 -0.706682,0.2906 l -0.471338,0.47199 c -0.129095,0.12984 -0.129095,0.33956 0,0.46939 0.130058,0.13039 0.34128,0.13039 0.471338,0 l 0.469388,-0.46939 c 0.132772,-0.13277 0.339206,-0.13278 0.471985,0 0.132772,0.13277 0.132775,0.33662 0,0.46939 l -0.471985,0.47133 c -0.129093,0.12984 -0.129093,0.33955 0,0.4694 0.130133,0.13082 0.341853,0.13082 0.471985,0 l 0.471339,-0.4694 c 0.387191,-0.38718 0.387191,-1.02552 0,-1.41271 -0.193596,-0.19359 -0.449613,-0.2906 -0.70603,-0.2906 z m -5.756166,4.24268 c -0.07878,-6e-5 -0.155027,0.0278 -0.215192,0.0786 -1.0489473,0.4668 -1.7819752,1.51403 -1.7819785,2.73246 -6.6e-6,1.65055 1.3445346,2.9977 2.9951035,2.9977 1.65057,0 2.995112,-1.34715 2.995105,-2.9977 -3e-6,-1.21972 -0.73394,-2.26834 -1.784581,-2.73441 -0.05992,-0.0497 -0.135375,-0.0769 -0.213238,-0.0767 z m 0.666372,0.66573 h 0.663124 l -0.331563,0.44469 z m -0.762593,0.0936 0.759993,1.01159 v 1.9159 c -0.301663,-0.10882 -0.564759,-0.36192 -0.676125,-0.77754 -0.03847,-0.14623 -0.170511,-0.24797 -0.3647159,-0.24184 -0.2208911,0.0535 -0.326588,0.23633 -0.2789056,0.41413 0.2223911,0.82997 0.9244765,1.31413 1.6344045,1.33144 0.709927,0.0174 1.437083,-0.45188 1.672759,-1.33144 0.04768,-0.17779 -0.05745,-0.36094 -0.235342,-0.40828 -0.177798,-0.0477 -0.360929,0.0581 -0.408276,0.23599 -0.122824,0.4584 -0.38089,0.70061 -0.678075,0.7938 v -1.92891 l 0.761291,-1.01419 c 0.73392,0.39117 1.236524,1.15766 1.236528,2.05113 6e-6,1.29077 -1.038599,2.33199 -2.329382,2.33199 -1.2907848,0 -2.3293836,-1.04122 -2.3293803,-2.33199 3.4e-6,-0.89342 0.501526,-1.6604 1.2352263,-2.05178 z m -6.3640281,2.9444 c 0.059476,-0.005 0.1236346,-0.004 0.1924372,0.004 0.1761971,0.0185 0.3628092,0.0877 0.5252957,0.18074 l -1.1643633,1.37696 c -0.2698876,-0.42186 -0.257352,-0.86466 0.044207,-1.35615 0.088072,-0.1209 0.2240058,-0.18996 0.4024231,-0.20479 z m 14.9722731,0 c 0.177535,0.0152 0.312254,0.0849 0.400476,0.20479 0.301276,0.49102 0.313285,0.93336 0.04421,1.35485 l -1.162417,-1.37566 c 0.16254,-0.0931 0.349671,-0.16228 0.525948,-0.18073 0.06855,-0.008 0.132608,-0.009 0.191785,-0.004 z m -4.111361,7.49978 0.183983,2.93271 c 0.0197,0.16886 -0.09809,0.301 -0.259396,0.301 H 7.9324016 c -0.1693234,0 -0.2938137,-0.13565 -0.2801996,-0.30946 l 0.131973,-2.55952 c 0.6705329,-0.0627 1.2901549,-0.0385 1.7592269,0.22299 0.8220661,0.47001 1.8310691,0.47405 2.6563921,0.0143 0.760972,-0.42383 1.612209,-0.62498 2.463955,-0.60202 z"
       style="color:#000000;font-style:normal;font-variant:normal;font-weight:normal;font-stretch:normal;font-size:medium;line-height:normal;font-family:sans-serif;font-variant-ligatures:normal;font-variant-position:normal;font-variant-caps:normal;font-variant-numeric:normal;font-variant-alternates:normal;font-variant-east-asian:normal;font-feature-settings:normal;font-variation-settings:normal;text-indent:0;text-align:start;text-decoration:none;text-decoration-line:none;text-decoration-style:solid;text-decoration-color:#000000;letter-spacing:normal;word-spacing:normal;text-transform:none;writing-mode:lr-tb;direction:ltr;text-orientation:mixed;dominant-baseline:auto;baseline-shift:baseline;text-anchor:start;white-space:normal;shape-padding:0;shape-margin:0;inline-size:0;clip-rule:nonzero;display:inline;overflow:visible;visibility:visible;isolation:auto;mix-blend-mode:normal;color-interpolation:sRGB;color-interpolation-filters:linearRGB;solid-color:#000000;solid-opacity:1;vector-effect:none;fill:#000000;fill-opacity:1;fill-rule:nonzero;stroke:none;stroke-width:0.529168;stroke-linecap:round;stroke-linejoin:round;stroke-miterlimit:4;stroke-dasharray:none;stroke-dashoffset:0;stroke-opacity:1;color-rendering:auto;image-rendering:auto;shape-rendering:auto;text-rendering:auto;enable-background:accumulate;stop-color:#000000"
       id="path703" />
  </g>
</svg>
